<svg width="163" height="38" viewBox="0 0 163 38" fill="none" xmlns="http://www.w3.org/2000/svg">
<path d="M44.7563 10C46.3439 10 47.7179 10.2555 48.8787 10.7666C50.0562 11.2776 50.9603 12.003 51.5919 12.9428C52.2234 13.8825 52.5395 14.9953 52.5395 16.2812C52.5395 17.5506 52.2234 18.6634 51.5919 19.6196C50.9603 20.5593 50.0562 21.2847 48.8787 21.796C47.7179 22.2903 46.3439 22.5377 44.7563 22.5377H41.147V27.3105H37V10H44.7563ZM44.5264 19.2734C45.7717 19.2734 46.7193 19.0179 47.3677 18.5068C48.0166 17.9792 48.3405 17.2374 48.3405 16.2812C48.3405 15.3085 48.0166 14.5666 47.3677 14.0556C46.7193 13.528 45.7717 13.2642 44.5264 13.2642H41.147V19.2734H44.5264Z" fill="#81818B"/>
<path d="M57.8146 15.9536C58.2919 15.3106 58.9324 14.8243 59.734 14.4946C60.5536 14.1648 61.4917 14 62.5501 14V17.561C62.1065 17.528 61.8078 17.5115 61.654 17.5115C60.5105 17.5115 59.6149 17.8248 58.9665 18.4512C58.3176 19.0612 57.9932 19.9844 57.9932 21.2208V27.5022H54V14.1978H57.8146V15.9536Z" fill="#81818B"/>
<path d="M71.5773 27.6997C70.1267 27.6997 68.8211 27.4115 67.6608 26.8343C66.5174 26.241 65.6212 25.4246 64.9728 24.386C64.3244 23.3475 64 22.1687 64 20.8499C64 19.531 64.3244 18.3523 64.9728 17.3136C65.6212 16.275 66.5174 15.4673 67.6608 14.8902C68.8211 14.2967 70.1267 14 71.5773 14C73.0279 14 74.3252 14.2967 75.4686 14.8902C76.6121 15.4673 77.5083 16.275 78.1572 17.3136C78.805 18.3523 79.1294 19.531 79.1294 20.8499C79.1294 22.1687 78.805 23.3475 78.1572 24.386C77.5083 25.4246 76.6121 26.241 75.4686 26.8343C74.3252 27.4115 73.0279 27.6997 71.5773 27.6997ZM71.5773 24.5344C72.6016 24.5344 73.4379 24.2051 74.0863 23.5453C74.752 22.8696 75.0843 21.9712 75.0843 20.8499C75.0843 19.7289 74.752 18.8386 74.0863 18.1792C73.4379 17.5032 72.6016 17.1653 71.5773 17.1653C70.5536 17.1653 69.7089 17.5032 69.0432 18.1792C68.3775 18.8386 68.0446 19.7289 68.0446 20.8499C68.0446 21.9712 68.3775 22.8696 69.0432 23.5453C69.7089 24.2051 70.5536 24.5344 71.5773 24.5344Z" fill="#81818B"/>
<path d="M96.4356 10V27.3105H93.031L84.096 16.8005V27.3105H80V10H83.4303L92.3396 20.5099V10H96.4356Z" fill="#81818B"/>
<path d="M103.452 14C105.585 14 107.223 14.4946 108.367 15.4838C109.51 16.4564 110.082 17.9319 110.082 19.9102V27.5022H106.344V25.8452C105.594 27.0817 104.194 27.6997 102.146 27.6997C101.088 27.6997 100.166 27.5269 99.3809 27.1807C98.6133 26.8343 98.0243 26.3565 97.6148 25.7462C97.2053 25.1364 97 24.4438 97 23.669C97 22.4326 97.4783 21.4599 98.4338 20.751C99.4066 20.0421 100.9 19.6877 102.914 19.6877H106.088C106.088 18.8469 105.824 18.2039 105.294 17.7588C104.765 17.2972 103.972 17.0664 102.914 17.0664C102.18 17.0664 101.455 17.1818 100.738 17.4126C100.038 17.6269 99.4407 17.9237 98.9456 18.3028L97.5124 15.6073C98.2631 15.0963 99.1588 14.7007 100.2 14.4204C101.258 14.1401 102.342 14 103.452 14ZM103.145 25.1034C103.827 25.1034 104.433 24.955 104.962 24.6582C105.491 24.3448 105.866 23.8917 106.088 23.298V21.9382H103.349C101.711 21.9382 100.891 22.4573 100.891 23.4959C100.891 23.9906 101.088 24.386 101.48 24.6829C101.89 24.9633 102.444 25.1034 103.145 25.1034Z" fill="#81818B"/>
<path d="M121.522 26.604C121.129 26.8843 120.643 27.0988 120.063 27.2472C119.499 27.3787 118.902 27.4447 118.27 27.4447C116.632 27.4447 115.361 27.0411 114.456 26.2333C113.568 25.4252 113.125 24.2382 113.125 22.6723V17.207H111V14.2395H113.125V11H117.118V14.2395H120.549V17.207H117.118V22.6228C117.118 23.1831 117.263 23.6202 117.554 23.9335C117.861 24.2299 118.288 24.3784 118.834 24.3784C119.465 24.3784 120.003 24.2135 120.446 23.884L121.522 26.604Z" fill="#81818B"/>
<path d="M136.952 14V27.3044H133.163V25.7216C132.634 26.2984 132.003 26.7437 131.269 27.057C130.535 27.3539 129.742 27.5019 128.888 27.5019C127.079 27.5019 125.645 26.9993 124.587 25.9937C123.529 24.9881 123 23.4959 123 21.5177V14H126.994V20.9487C126.994 23.0919 127.924 24.1635 129.784 24.1635C130.74 24.1635 131.508 23.867 132.088 23.2733C132.668 22.6635 132.958 21.7651 132.958 20.5779V14H136.952Z" fill="#81818B"/>
<path d="M141.814 15.9536C142.292 15.3106 142.932 14.8243 143.734 14.4946C144.553 14.1648 145.492 14 146.551 14V17.561C146.107 17.528 145.808 17.5115 145.654 17.5115C144.511 17.5115 143.615 17.8248 142.966 18.4512C142.318 19.0612 141.994 19.9844 141.994 21.2208V27.5022H138V14.1978H141.814V15.9536Z" fill="#81818B"/>
<path d="M162.515 20.8996C162.515 20.9486 162.49 21.295 162.439 21.9382H152.019C152.207 22.7624 152.65 23.4134 153.35 23.8917C154.05 24.3695 154.921 24.6087 155.962 24.6087C156.678 24.6087 157.31 24.5097 157.856 24.3118C158.419 24.0979 158.94 23.768 159.417 23.3227L161.542 25.5483C160.246 26.9827 158.351 27.6997 155.859 27.6997C154.306 27.6997 152.932 27.4115 151.737 26.8343C150.543 26.241 149.621 25.4246 148.972 24.386C148.324 23.3475 148 22.1687 148 20.8499C148 19.5475 148.316 18.377 148.947 17.3384C149.595 16.2833 150.474 15.4673 151.584 14.8902C152.71 14.2967 153.965 14 155.347 14C156.696 14 157.916 14.2802 159.008 14.8407C160.1 15.4013 160.953 16.2091 161.568 17.2642C162.2 18.3029 162.515 19.5145 162.515 20.8996ZM155.373 16.918C154.469 16.918 153.708 17.1653 153.095 17.6599C152.48 18.1545 152.104 18.8304 151.968 19.6877H158.752C158.616 18.8469 158.24 18.1792 157.625 17.6846C157.011 17.1735 156.26 16.918 155.373 16.918Z" fill="#81818B"/>
<path fill-rule="evenodd" clip-rule="evenodd" d="M19.748 0.255032C19.1395 -0.0850106 18.3893 -0.0850106 17.7808 0.255032C13.4588 2.67008 10.5437 7.18871 10.5437 12.3673C10.5437 13.1054 10.603 13.83 10.717 14.5371C7.74179 13.5611 4.52028 13.9163 1.88898 15.3809C1.27993 15.7199 0.904766 16.3475 0.905396 17.0265C0.908494 20.609 2.83503 24.1004 6.28533 26.0246C7.97804 26.9688 9.82557 27.4173 11.6479 27.4182C11.3707 28.1772 11.2198 28.9936 11.2198 29.8441C11.2198 33.8691 14.5976 37.1315 18.7641 37.1315C22.9309 37.1315 26.3084 33.8691 26.3084 29.8441C26.3084 28.9915 26.1568 28.1735 25.8785 27.4132C27.5923 27.3608 29.3184 26.9114 30.9079 26.0246C34.3586 24.1004 36.2848 20.609 36.2874 17.0267C36.2885 16.3476 35.9131 15.7201 35.3041 15.381C32.7767 13.9741 29.7042 13.5909 26.8291 14.4281C26.932 13.7556 26.9849 13.0675 26.9849 12.3673C26.9849 7.18871 24.0701 2.67008 19.748 0.255032ZM14.4724 12.3673C14.4724 9.00447 16.1581 6.02016 18.7644 4.16256C21.3707 6.02016 23.0564 9.00447 23.0564 12.3673C23.0564 15.7301 21.3707 18.7144 18.7644 20.572C16.1581 18.7144 14.4724 15.7301 14.4724 12.3673ZM26.5115 18.6692C28.3256 17.6575 30.4217 17.5398 32.2528 18.18C31.9115 20.0318 30.7576 21.7263 28.9436 22.7381C27.1296 23.7499 25.0334 23.8674 23.2024 23.2275C23.5438 21.3754 24.6975 19.6809 26.5115 18.6692ZM4.94049 18.1798C6.77148 17.5397 8.8676 17.6574 10.6816 18.6691C12.4958 19.6808 13.6493 21.3754 13.9909 23.2271C12.1598 23.8674 10.0638 23.7499 8.24967 22.7381C6.43564 21.7263 5.28206 20.0317 4.94049 18.1798ZM15.1485 29.8441C15.1485 27.9154 16.7673 26.3515 18.7641 26.3515C20.7609 26.3515 22.3798 27.9154 22.3798 29.8441C22.3798 31.7729 20.7609 33.3368 18.7641 33.3368C16.7673 33.3368 15.1485 31.7729 15.1485 29.8441Z" fill="#81818B"/>
</svg>
